<svg width="246" height="72" viewBox="0 0 246 72" fill="none" xmlns="http://www.w3.org/2000/svg">
<path d="M85.7502 26.2613C86.801 27.7263 87.3283 29.6518 87.3283 32.0377C87.3283 34.2799 86.7238 36.2948 85.5148 38.0843C84.3059 39.8737 82.6318 41.2766 80.4944 42.2869C78.3571 43.2992 75.9391 43.8063 73.2406 43.8063C70.3312 43.8063 67.755 43.2545 65.5141 42.1529C63.2713 41.0512 61.5106 39.5318 60.2319 37.5966C59.07 35.8421 58.4072 33.8699 58.2433 31.6822C58.2151 31.3188 58.5013 31.0118 58.8554 31.0157L64.6648 31.1051C64.9661 31.109 65.2128 31.3441 65.2542 31.6511C65.4896 33.4308 66.2787 34.8861 67.6176 36.0228C69.0883 37.2702 71.0166 37.8938 73.3988 37.8938C75.3968 37.8938 77.0257 37.4431 78.2874 36.5377C79.5491 35.6342 80.1799 34.3868 80.1799 32.7955C80.1799 31.6744 79.8297 30.7884 79.1291 30.1375C78.4267 29.4866 77.4739 28.9814 76.2649 28.6181C75.0559 28.2567 73.2236 27.8409 70.7718 27.3707L70.5082 27.3163C68.1957 26.883 66.2146 26.2943 64.5688 25.554C62.921 24.8137 61.5897 23.7198 60.5747 22.2723C59.5578 20.8268 59.0493 18.909 59.0493 16.5231C59.0493 14.3547 59.618 12.402 60.7573 10.665C61.8966 8.92991 63.4916 7.57372 65.5405 6.59834C67.5912 5.62297 69.8943 5.13334 72.4534 5.13334C75.152 5.13334 77.5605 5.64046 79.6809 6.65275C81.8013 7.66504 83.466 9.08535 84.675 10.9098C85.7615 12.5516 86.4018 14.3741 86.5976 16.3812C86.6334 16.7484 86.3472 17.0632 85.9913 17.0613L80.1743 17.0166C79.8805 17.0146 79.6357 16.7931 79.583 16.4939C79.325 14.9939 78.6207 13.7563 77.472 12.7809C76.1915 11.6967 74.5192 11.1546 72.4516 11.1546C70.559 11.1546 69.0356 11.5704 67.8793 12.402C66.7231 13.2336 66.145 14.4441 66.145 16.0354C66.145 17.1196 66.4858 17.9706 67.1694 18.5846C67.853 19.2005 68.7889 19.6882 69.9809 20.0496C71.171 20.411 72.96 20.8093 75.3422 21.2426H75.3949C77.8486 21.7128 79.9238 22.2995 81.6243 23.0048C83.3229 23.7101 84.6994 24.7943 85.7502 26.2593V26.2613ZM117.95 38.2455V42.8582C117.95 43.2021 117.681 43.4818 117.345 43.4818H112.685C111.065 43.4818 109.753 42.1257 109.753 40.4547V39.5357C109.753 38.7701 108.775 38.5059 108.401 39.1665C107.636 40.3362 106.798 41.296 105.792 42.044C104.674 42.8776 103.555 43.4624 102.181 43.6897C100.866 43.9074 99.5216 43.8296 98.2109 43.6217C96.4954 43.3478 94.8288 42.7221 93.4353 41.638C91.5785 40.1924 90.6501 38.2028 90.6501 35.6711C90.6501 32.743 91.667 30.4833 93.6989 28.892C95.7308 27.3008 98.7099 26.5061 102.634 26.5061H107.472C107.805 26.5061 108.077 26.2282 108.077 25.8824V25.0411C108.077 22.3481 106.056 20.5392 103.213 20.5392C101.706 20.5392 100.561 20.8734 99.5969 21.5418C98.7645 22.1188 98.2279 22.8649 97.983 23.7781C97.9115 24.0443 97.6723 24.227 97.4049 24.227H92.0625C91.6859 24.227 91.4053 23.8753 91.4674 23.4906C91.8761 21.023 93.07 19.08 95.0491 17.6636C97.2223 16.1092 99.9867 15.3165 103.527 15.3165C107.276 15.3165 109.67 16.1908 111.702 17.9084C113.734 19.626 114.75 22.1305 114.75 25.4199V35.7799C114.75 36.4308 114.899 36.901 115.197 37.1905C115.494 37.48 115.907 37.6238 116.432 37.6238H117.34C117.673 37.6238 117.944 37.9036 117.944 38.2475L117.95 38.2455ZM108.079 31.8998C108.079 31.5559 107.807 31.2761 107.474 31.2761H102.531C100.883 31.2761 99.6138 31.6103 98.7193 32.2787C97.8267 32.949 97.3786 33.8972 97.3786 35.1251C97.3786 36.2093 97.7816 37.0778 98.5875 37.7287C99.3935 38.3796 100.461 38.7041 101.795 38.7041C104.088 38.7041 106.124 37.616 107.263 35.5312C107.805 34.5364 108.079 33.3706 108.079 32.0338V31.8978V31.8998ZM136.821 5.53165H129.87C126.202 5.53165 123.23 8.59961 123.23 12.3826V15.3923C123.23 15.7362 122.959 16.0159 122.626 16.0159H118.656C118.323 16.0159 118.052 16.2957 118.052 16.6396V21.3047C118.052 21.6486 118.323 21.9284 118.656 21.9284H122.626C122.959 21.9284 123.23 22.2063 123.23 22.5521V42.8601C123.23 43.204 123.501 43.4838 123.835 43.4838H129.251C129.584 43.4838 129.855 43.204 129.855 42.8601V22.5521C129.855 22.2082 130.126 21.9284 130.46 21.9284H136.772C137.105 21.9284 137.376 21.6486 137.376 21.3047V16.6396C137.376 16.2957 137.105 16.0159 136.772 16.0159H130.46C130.126 16.0159 129.855 15.7362 129.855 15.3923V12.6876C129.855 11.9998 130.395 11.4422 131.062 11.4422H136.823C137.156 11.4422 137.427 11.1624 137.427 10.8185V6.1534C137.427 5.8095 137.156 5.52971 136.823 5.52971L136.821 5.53165ZM44.7262 24.497H39.574C38.0355 24.497 36.7888 25.7833 36.7888 27.3707V35.0843C36.7888 36.6717 35.5422 37.958 34.0037 37.958H13.5096C11.9711 37.958 10.7244 39.2442 10.7244 40.8316V46.1476C10.7244 47.735 11.9711 49.0213 13.5096 49.0213H35.1919C36.7305 49.0213 37.9601 47.735 37.9601 46.1476V41.8828C37.9601 40.2954 39.2068 39.1684 40.7453 39.1684H44.7262C46.2647 39.1684 47.5114 37.8822 47.5114 36.2948V27.3357C47.5114 25.7483 46.2647 24.4951 44.7262 24.4951V24.497ZM10.7225 13.937C10.7225 12.3496 11.9692 11.0633 13.5077 11.0633H33.9905C35.529 11.0633 36.7757 9.77705 36.7757 8.18964V2.87366C36.7757 1.28625 35.529 0 33.9905 0H12.3213C10.7828 0 9.53617 1.28625 9.53617 2.87366V6.96945C9.53617 8.55686 8.28954 9.84311 6.75102 9.84311H2.78515C1.24663 9.84311 0 11.1294 0 12.7168V21.6856C0 23.273 1.25228 24.4951 2.7908 24.4951H7.94304C9.48156 24.4951 10.7282 23.2088 10.7282 21.6214L10.7225 13.937ZM21.3302 18.909C19.7164 18.909 18.4095 20.2594 18.4095 21.9226V27.0287C18.4095 28.6939 19.7183 30.0423 21.3302 30.0423H26.2791C27.8929 30.0423 29.1998 28.6919 29.1998 27.0287V21.9226C29.1998 20.2575 27.891 18.909 26.2791 18.909H21.3302ZM163.356 21.6234C164.529 23.648 165.117 25.999 165.117 28.6744C165.117 29.0358 165.107 29.4341 165.09 29.8674C165.081 30.1064 165.062 30.3415 165.038 30.5708C165.002 30.8836 164.742 31.1148 164.437 31.1148H145.671C145.314 31.1148 145.029 31.4354 145.071 31.8046C145.091 31.9833 145.116 32.1621 145.144 32.3389C145.223 32.8441 145.338 33.3434 145.498 33.8272C145.647 34.278 145.833 34.7151 146.061 35.129C146.639 36.1782 147.428 36.9923 148.426 37.5694C149.425 38.1484 150.59 38.4379 151.922 38.4379C153.534 38.4379 154.882 38.059 155.97 37.2993C156.94 36.6212 157.618 35.6983 158 34.5286C158.083 34.2741 158.313 34.0992 158.573 34.0992H164.015C164.405 34.0992 164.691 34.4742 164.603 34.8667C164.264 36.3764 163.629 37.7637 162.699 39.0344C161.612 40.5169 160.185 41.6827 158.415 42.5317C156.644 43.3828 154.637 43.8063 152.396 43.8063C149.487 43.8063 146.956 43.2293 144.8 42.0712C142.643 40.9152 140.988 39.2598 139.832 37.1089C138.676 34.958 138.098 32.471 138.098 29.6517C138.098 26.8325 138.659 24.2367 139.779 22.0858C140.9 19.9349 142.478 18.2717 144.51 17.0962C146.541 15.9207 148.873 15.3184 151.502 15.3184C154.13 15.3184 156.513 15.8761 158.545 16.9622C160.576 18.0464 162.181 19.6027 163.354 21.6273L163.356 21.6234ZM158.309 25.6356C157.983 24.1551 157.309 22.9796 156.287 22.1111C155.095 21.0988 153.588 20.5917 151.765 20.5917C150.643 20.5917 149.611 20.8268 148.664 21.297C147.718 21.7672 146.946 22.4453 146.351 23.3312C145.888 24.0191 145.564 24.7885 145.376 25.6376C145.289 26.0262 145.581 26.3953 145.967 26.3953H157.72C158.106 26.3953 158.396 26.0242 158.309 25.6356ZM237.753 16.0159V9.67407C237.753 8.69676 236.986 7.90597 236.039 7.90597H232.681C231.734 7.90597 230.968 8.69676 230.968 9.67407V16.0159H227.315C226.441 16.0159 225.733 16.7465 225.733 17.648V20.2827C225.733 21.1843 226.441 21.9148 227.315 21.9148H230.968V36.6523C230.968 37.6296 231.734 38.4204 232.681 38.4204H235.124C236.071 38.4204 236.838 38.9372 236.838 39.9145V41.7235C236.838 42.7008 237.604 43.4916 238.551 43.4916H242.839C243.786 43.4916 244.515 42.6969 244.515 41.7196V39.4288C244.515 38.4515 243.749 37.6607 242.801 37.6607L239.28 37.6646C238.333 37.6646 237.755 36.6503 237.755 35.675V21.9148H243.525C244.398 21.9148 245.106 21.1843 245.106 20.2827V17.648C245.106 16.7465 244.398 16.0159 243.525 16.0159H237.753ZM223.433 21.944V29.199C223.433 30.2444 222.612 31.0934 221.597 31.0934H203.964V35.5545C203.964 36.5998 204.785 37.616 205.8 37.616L218.663 37.6121C219.677 37.6121 220.5 38.4593 220.5 39.5065V41.5952C220.5 42.6405 219.72 43.4916 218.705 43.4916H205.02C204.007 43.4916 203.184 42.6444 203.184 41.5972V40.342C203.184 39.2967 202.363 38.4476 201.348 38.4476H199.026C198.013 38.4476 197.19 37.6005 197.19 36.5532V21.942C197.19 20.8967 198.011 20.0476 199.026 20.0476H201.348C202.361 20.0476 203.184 19.2005 203.184 18.1532V16.8184C203.184 15.7731 204.005 14.924 205.02 14.924H215.795C216.809 14.924 217.632 15.7711 217.632 16.8184V18.1532C217.632 19.1985 218.453 20.0476 219.468 20.0476H221.599C222.612 20.0476 223.435 20.8948 223.435 21.942L223.433 21.944ZM203.964 22.9465V26.4245H216.85V22.9465C216.85 21.9012 216.029 21.0521 215.014 21.0521H205.798C204.785 21.0521 203.962 21.8993 203.962 22.9465H203.964ZM189.204 19.9738C188.191 19.9738 187.368 19.1266 187.368 18.0794V16.8417C187.368 15.7964 186.547 14.9473 185.532 14.9473H176.464C175.451 14.9473 174.628 15.7944 174.628 16.8417V18.0794C174.628 19.1247 173.807 19.9738 172.792 19.9738H170.553C169.54 19.9738 168.717 20.8209 168.717 21.8682V41.5991C168.717 42.6444 169.538 43.4935 170.553 43.4935H173.572C174.585 43.4935 175.408 42.6464 175.408 41.5991V22.9601C175.408 21.9148 176.229 21.0657 177.244 21.0657H184.754C185.767 21.0657 186.59 21.9129 186.59 22.9601V41.5991C186.59 42.6444 187.411 43.4935 188.426 43.4935H191.445C192.458 43.4935 193.281 42.6464 193.281 41.5991V21.8682C193.281 20.8229 192.46 19.9738 191.445 19.9738H189.204Z" fill="black"/>
<path d="M187.567 69.021V51.6184H192.469C194.381 51.6184 195.819 52.0433 196.783 52.893C197.764 53.7427 198.254 54.9029 198.254 56.3735C198.254 57.0925 198.082 57.7379 197.739 58.3098C197.396 58.8818 196.914 59.3311 196.293 59.6579C195.672 59.9847 194.953 60.1481 194.136 60.1481V60.0011C195.149 60.0011 196.015 60.1727 196.734 60.5158C197.47 60.859 198.025 61.341 198.401 61.9619C198.793 62.5829 198.989 63.3182 198.989 64.1679C198.989 65.6712 198.466 66.8559 197.421 67.7219C196.375 68.588 194.929 69.021 193.082 69.021H187.567ZM189.675 66.9621H193.107C194.365 66.9621 195.288 66.717 195.876 66.2268C196.481 65.7366 196.783 65.0503 196.783 64.1679C196.783 63.2365 196.473 62.5093 195.852 61.9864C195.231 61.4635 194.316 61.2021 193.107 61.2021H189.675V66.9621ZM189.675 59.1432H192.567C193.777 59.1432 194.659 58.9063 195.215 58.4324C195.77 57.9585 196.048 57.2886 196.048 56.4225C196.048 55.5401 195.77 54.862 195.215 54.3881C194.659 53.9143 193.777 53.6773 192.567 53.6773H189.675V59.1432ZM202.264 69.021V51.6184H212.853V53.6773H204.372V59.2903H212.559V61.3001H204.372V66.9621H213.049V69.021H202.264ZM221.054 69.021V53.6773H215.735V51.6184H228.481V53.6773H223.162V69.021H221.054ZM230.089 69.021L235.383 51.6184H238.227L243.521 69.021H241.266L236.805 53.5303L232.344 69.021H230.089ZM232.761 64.0698L233.496 62.011H240.114L240.849 64.0698H232.761Z" fill="black"/>
</svg>
